<?xml version="1.0" encoding="UTF-8" standalone="no"?>
<!DOCTYPE svg PUBLIC "-//W3C//DTD SVG 1.1//EN"
 "http://www.w3.org/Graphics/SVG/1.1/DTD/svg11.dtd">
<!-- Generated by graphviz version 2.26.3 (20100126.1600)
 -->
<!-- Title: G Pages: 1 -->
<svg width="302pt" height="190pt"
 viewBox="0.00 0.00 302.00 190.00" xmlns="http://www.w3.org/2000/svg" xmlns:xlink="http://www.w3.org/1999/xlink">
<g id="graph1" class="graph" transform="scale(1 1) rotate(0) translate(4 186)">
<title>G</title>
<polygon fill="white" stroke="white" points="-4,5 -4,-186 299,-186 299,5 -4,5"/>
<g id="graph2" class="cluster"><title>cluster_ChillDev</title>
<polyline fill="none" stroke="gray" points="202,-8 274,-8 "/>
<path fill="none" stroke="gray" d="M274,-8C280,-8 286,-14 286,-20"/>
<polyline fill="none" stroke="gray" points="286,-20 286,-162 "/>
<path fill="none" stroke="gray" d="M286,-162C286,-168 280,-174 274,-174"/>
<polyline fill="none" stroke="gray" points="274,-174 202,-174 "/>
<path fill="none" stroke="gray" d="M202,-174C196,-174 190,-168 190,-162"/>
<polyline fill="none" stroke="gray" points="190,-162 190,-20 "/>
<path fill="none" stroke="gray" d="M190,-20C190,-14 196,-8 202,-8"/>
<text text-anchor="middle" x="238" y="-160.1" font-family="Times Roman,serif" font-size="11.00" fill="gray">ChillDev</text>
</g>
<g id="graph3" class="cluster"><title>cluster_ChillDev\Spintax</title>
<polyline fill="none" stroke="gray" points="210,-16 266,-16 "/>
<path fill="none" stroke="gray" d="M266,-16C272,-16 278,-22 278,-28"/>
<polyline fill="none" stroke="gray" points="278,-28 278,-132 "/>
<path fill="none" stroke="gray" d="M278,-132C278,-138 272,-144 266,-144"/>
<polyline fill="none" stroke="gray" points="266,-144 210,-144 "/>
<path fill="none" stroke="gray" d="M210,-144C204,-144 198,-138 198,-132"/>
<polyline fill="none" stroke="gray" points="198,-132 198,-28 "/>
<path fill="none" stroke="gray" d="M198,-28C198,-22 204,-16 210,-16"/>
<text text-anchor="middle" x="238" y="-130.1" font-family="Times Roman,serif" font-size="11.00" fill="gray">Spintax</text>
</g>
<!-- \\ChillDev\\Spintax\\Parser -->
<g id="node3" class="node"><title>\\ChillDev\\Spintax\\Parser</title>
<a xlink:href="Parser.html" xlink:title="Parser" target="_parent">
<polygon fill="none" stroke="black" points="266,-114 210,-114 210,-78 266,-78 266,-114"/>
<text text-anchor="middle" x="238" y="-93.1" font-family="Courier,monospace" font-size="11.00">Parser</text>
</a>
</g>
<!-- \\ChillDev\\Spintax\\Content -->
<g id="node4" class="node"><title>\\ChillDev\\Spintax\\Content</title>
<a xlink:href="Content.html" xlink:title="Content" target="_parent">
<polygon fill="none" stroke="black" points="270,-60 206,-60 206,-24 270,-24 270,-60"/>
<text text-anchor="middle" x="238" y="-39.1" font-family="Courier,monospace" font-size="11.00">Content</text>
</a>
</g>
<!-- \\Countable -->
<g id="node6" class="node"><title>\\Countable</title>
<ellipse fill="none" stroke="black" cx="67" cy="-42" rx="66.2071" ry="18"/>
<text text-anchor="middle" x="67" y="-37.9" font-family="Times Roman,serif" font-size="14.00" fill="gray">\\Countable</text>
</g>
<!-- \\ChillDev\\Spintax\\Content&#45;&gt;\\Countable -->
<g id="edge4" class="edge"><title>\\ChillDev\\Spintax\\Content&#45;&gt;\\Countable</title>
<path fill="none" stroke="black" stroke-dasharray="1,5" d="M205.836,-42C188.297,-42 165.772,-42 143.991,-42"/>
<polygon fill="none" stroke="black" points="143.721,-38.5001 133.721,-42 143.721,-45.5001 143.721,-38.5001"/>
</g>
</g>
</svg>
